<svg width="24" height="24" viewBox="0 0 24 24" fill="none" xmlns="http://www.w3.org/2000/svg">
<rect width="24" height="24" rx="6" fill="#3C4352"/>
<path d="M12 16L11.5581 16.4419L12 16.8839L12.4419 16.4419L12 16ZM12.625 8.5C12.625 8.15482 12.3452 7.875 12 7.875C11.6548 7.875 11.375 8.15482 11.375 8.5L12.625 8.5ZM8.55806 13.4419L11.5581 16.4419L12.4419 15.5581L9.44195 12.5581L8.55806 13.4419ZM12.4419 16.4419L15.4419 13.4419L14.5581 12.5581L11.5581 15.5581L12.4419 16.4419ZM12.625 16L12.625 8.5L11.375 8.5L11.375 16L12.625 16Z" fill="#F26666"/>
</svg>
